<svg aria-hidden="true" style="position:absolute;width:0;height:0;overflow:hidden" xmlns="http://www.w3.org/2000/svg">
  <defs>
 

  <symbol id="arrow-left" viewBox="0 0 24 24">
    <path d="M7.72 12.53a.75.75 0 0 1 0-1.06l7.5-7.5a.75.75 0 0 1 1.06 1.06L9.31 12l6.97 6.97a.75.75 0 1 1-1.06 1.06l-7.5-7.5Z"/>
  </symbol>

  <symbol id="arrow-right" viewBox="0 0 24 24">
      <path d="M16.28 11.47a.75.75 0 0 1 0 1.06l-7.5 7.5a.75.75 0 0 1-1.06-1.06L14.69 12 7.72 5.03a.75.75 0 1 1 1.06-1.06l7.5 7.5Z"/>
  </symbol>


  </defs>
</svg>
